<svg width="64" height="63" viewBox="0 0 64 63" fill="none" xmlns="http://www.w3.org/2000/svg">
<path d="M60.4985 26.7893C62.5369 25.0272 63.6078 22.2624 63.4489 19.1296C63.2558 15.3226 61.2398 11.8666 58.4356 10.5301C55.4073 9.08796 52.0185 10.3541 49.6036 11.7632C46.6875 9.88213 43.4752 8.50606 40.1017 7.69276C39.7817 6.47569 39.0233 5.49543 38.8622 5.29489L37.4041 3.48156L36.3033 5.53063C36.1405 5.83022 35.9409 6.10828 35.7092 6.35836C34.3662 2.74663 31.2772 1.69703 31.1364 1.65116L29.035 0.959961L29.115 3.16903C29.1564 3.98077 29.102 4.79456 28.9529 5.59356C27.1396 4.34236 25.4009 4.39356 25.3198 4.39463L23.1428 4.46183L24.3001 7.45383C20.856 8.25653 17.5997 9.71806 14.7108 11.7578C12.2948 10.3488 8.90916 9.09116 5.88516 10.5258C3.06596 11.8677 1.04889 15.3386 0.871825 19.1658C0.718225 22.2933 1.79876 25.056 3.84356 26.8085C2.62329 30.2528 1.98756 33.5893 1.95236 36.7285C1.83929 46.6986 9.61422 54.1088 9.94489 54.4192L16.2446 60.3328L13.5193 54.881C18.8078 60.4042 24.171 61.2192 24.171 61.2192L29.2238 62.3925L27.5054 60.3658C29.0222 60.6976 30.6756 60.9674 32.0846 60.9824C33.915 61.0026 36.2148 60.5973 38.1572 60.1546L36.4217 62.6848L40.6542 61.3781C45.1545 59.9914 48.5625 57.3749 51.0116 54.7872L49.7017 57.6768L54.4398 54.2165C56.3385 52.8298 58.0601 50.6026 59.5598 47.5978C62.2382 42.2493 62.9402 36.1263 61.5417 30.3104C61.258 29.1594 60.9102 27.9765 60.4985 26.7893Z" fill="black"/>
<path d="M48.5947 14.3358C48.5947 14.3358 53.7819 10.1758 57.6763 12.0296C62.4635 14.3091 63.7563 23.7683 58.0955 26.596L48.5947 14.3358Z" fill="#282828"/>
<path d="M54.0918 19.0751C54.0918 19.0751 63.0518 15.6618 57.7633 24.7583L54.0918 19.0751Z" fill="#F7CEE0"/>
<path d="M53.4829 19.0753C53.4829 19.0753 55.9661 19.7878 57.1352 20.6027C57.1352 20.6027 57.724 19.0753 56.9624 18.4481C56.9624 18.4481 59.2696 18.5899 59.4157 20.6027C59.4157 20.6027 60.8664 12.8513 54.381 13.5627C48.5741 14.2027 48.3213 15.1041 48.3213 15.1041L53.4829 19.0753Z" fill="black"/>
<path d="M15.537 14.3358C15.537 14.3358 10.3509 10.1758 6.45542 12.0296C1.66822 14.3091 0.375424 23.7683 6.03622 26.596L15.537 14.3358Z" fill="#282828"/>
<path d="M10.0401 19.0751C10.0401 19.0751 1.08005 15.6618 6.36859 24.7583L10.0401 19.0751Z" fill="#F7CEE0"/>
<path d="M10.649 19.0753C10.649 19.0753 7.32526 19.7878 6.15619 20.6027C6.15619 20.6027 5.63566 18.4481 7.96953 18.5377C7.96953 18.5377 4.86232 18.5899 4.71086 20.6027C4.71086 20.6027 3.26019 12.8513 9.74553 13.5627C15.5525 14.2027 15.8053 15.1041 15.8053 15.1041L10.649 19.0753Z" fill="black"/>
<path d="M26.3113 8.72812L25.2745 6.04759C25.2745 6.04759 27.5977 5.97612 29.3491 8.29932C29.3491 8.29932 30.707 7.15585 30.5641 3.22412C30.5641 3.22412 34.1737 4.40385 34.6387 9.09079C34.6387 9.09079 36.5683 8.23745 37.5689 6.37505C37.5689 6.37505 38.7486 7.84065 38.6057 9.09079C38.6057 9.09079 51.0419 11.0108 56.5097 21.7041C58.2515 25.1025 59.3107 28.1756 59.9507 30.7847C61.2682 36.2465 60.6076 41.9984 58.0862 47.0193C56.9385 49.3244 55.4003 51.6476 53.4398 53.0801C53.4398 53.0801 54.6547 50.3996 54.1865 47.6476C54.1865 47.6476 49.8259 57.0108 40.1065 60.0124C40.1065 60.0124 40.9598 58.7623 41.107 57.8684C41.107 57.8684 35.5251 59.5836 32.0083 59.5484C28.4915 59.5132 23.0953 57.6902 23.0953 57.6902C23.0953 57.6902 23.5977 59.1911 24.2931 59.798C24.2931 59.798 16.1619 58.6545 9.97848 47.6828C9.97848 47.6828 9.51448 50.614 10.9075 53.4012C10.9075 53.4012 3.29581 46.2545 3.40248 36.8551C3.50914 27.4556 9.33528 19.0567 9.33528 19.0567C9.33528 19.0567 15.1614 10.4796 26.3113 8.72812Z" fill="white"/>
<path d="M10.9088 53.4015C9.51468 50.6143 9.97975 47.6799 9.97975 47.6799C16.1664 58.6516 24.2944 59.7951 24.2944 59.7951C23.5979 59.1881 23.0955 57.6873 23.0955 57.6873C23.0955 57.6873 28.4918 59.5092 32.0086 59.5455C35.5254 59.5817 41.1072 57.8655 41.1072 57.8655C40.9643 58.7593 40.1067 60.0095 40.1067 60.0095C49.8283 57.0111 54.191 47.6479 54.191 47.6479C54.656 50.3999 53.4443 53.0804 53.4443 53.0804C55.4038 51.6479 56.9419 49.3247 58.0907 47.0196C60.6106 41.9982 61.2697 36.2462 59.951 30.7849C59.8692 30.4472 59.7792 30.1012 59.6811 29.7471C57.6853 39.1391 51.456 53.2457 32.0043 52.9065C12.8363 52.5759 6.51095 39.0868 4.42242 29.9209C3.83468 32.0809 3.42722 34.4329 3.39948 36.8543C3.29602 46.2559 10.9088 53.4015 10.9088 53.4015Z" fill="#E5E5E5"/>
<path d="M29.3944 39.3654C29.3944 39.3654 28.1582 40.3168 25.676 40.1483C23.1939 39.9798 20.9827 36.5846 20.9827 36.5846L19.9043 40.1483C21.0211 44.607 31.979 43.9264 31.979 43.9264V35.6064H26.5742C27.1192 37.4806 29.3944 39.3654 29.3944 39.3654Z" fill="#E5E5E5"/>
<path d="M43.0656 36.5864C43.0656 36.5864 40.8469 39.9816 38.3659 40.1501C35.8848 40.3186 34.6485 39.3672 34.6485 39.3672C34.6485 39.3672 36.9237 37.4824 37.4688 35.6104H32.0693V43.9304C32.0693 43.9304 43.0272 44.6109 44.144 40.1522L43.0656 36.5864Z" fill="#E5E5E5"/>
<path d="M19.9083 39.4986C19.9083 39.4986 22.7232 42.3562 26.1941 42.3562C29.3941 42.3562 30.7691 41.3119 30.7691 41.3119L30.7168 38.4756L33.248 38.3018V41.2884C33.248 41.2884 34.9547 42.4479 37.9552 42.3551C40.9557 42.2623 44.1077 39.2394 44.1077 39.2394C44.1077 39.2394 46.1781 56.4628 32.1611 56.4692C18.144 56.4756 19.9083 39.4986 19.9083 39.4986Z" fill="black"/>
<path d="M26.6016 43.9263C27.5097 44.3845 28.4594 44.7553 29.4378 45.0335C30.3217 45.2818 31.2367 45.4014 32.1546 45.3887C33.0855 45.3833 34.0124 45.268 34.9162 45.0452C35.3883 44.9293 35.8517 44.7803 36.3029 44.5993C36.7909 44.4092 37.2647 44.1843 37.7205 43.9263C37.3621 45.0004 36.5002 45.8569 35.5082 46.4372C34.4913 47.0075 33.3461 47.3099 32.1802 47.3161C30.9996 47.339 29.8366 47.0284 28.8245 46.4201C27.8442 45.8207 27.0154 44.9759 26.6016 43.9263Z" fill="#F7CEE0"/>
<path d="M25.9739 39.0046C25.7701 38.786 25.7776 38.3732 26.0208 38.1204C26.1443 37.989 26.3087 37.9032 26.4872 37.8771C26.6657 37.851 26.8477 37.886 27.0038 37.9765C27.1598 38.067 27.2806 38.2076 27.3465 38.3755C27.4125 38.5434 27.4197 38.7287 27.3669 38.9012C27.2677 39.2382 26.9115 39.4484 26.6203 39.3801C26.7394 39.3405 26.845 39.2682 26.925 39.1715C27.005 39.0747 27.0561 38.9574 27.0725 38.8329C27.0863 38.7283 27.0687 38.622 27.0221 38.5274C26.9754 38.4329 26.9018 38.3542 26.8105 38.3015C26.7191 38.2487 26.6142 38.2242 26.509 38.2311C26.4037 38.238 26.3029 38.2759 26.2192 38.3401C26.1201 38.4167 26.0445 38.5196 26.0011 38.6372C25.9578 38.7547 25.9483 38.882 25.9739 39.0046Z" fill="black"/>
<path d="M28.1305 40.9395C27.9267 40.7208 27.9331 40.308 28.1774 40.0552C28.3011 39.9244 28.4653 39.8392 28.6435 39.8134C28.8217 39.7876 29.0033 39.8228 29.159 39.9132C29.3147 40.0035 29.4353 40.1439 29.5013 40.3114C29.5673 40.4789 29.5747 40.6637 29.5225 40.836C29.4233 41.1742 29.0681 41.3843 28.7758 41.315C28.8948 41.2755 29.0003 41.2033 29.0803 41.1068C29.1603 41.0102 29.2115 40.8931 29.2281 40.7688C29.2418 40.6643 29.2243 40.558 29.1776 40.4634C29.131 40.3688 29.0574 40.2901 28.966 40.2374C28.8747 40.1846 28.7698 40.1602 28.6645 40.167C28.5593 40.1739 28.4584 40.2118 28.3747 40.276C28.2757 40.3524 28.2003 40.4552 28.1571 40.5726C28.1138 40.6899 28.1046 40.8171 28.1305 40.9395Z" fill="black"/>
<path d="M25.7228 41.3239C25.5553 41.1799 25.5436 40.8642 25.7228 40.6668C25.8158 40.5642 25.9412 40.4967 26.0781 40.4754C26.2149 40.4542 26.3549 40.4805 26.4746 40.5501C26.5944 40.6196 26.6866 40.7282 26.736 40.8575C26.7853 40.9869 26.7888 41.1293 26.7457 41.261C26.6647 41.517 26.3841 41.6631 26.1761 41.5884C26.2541 41.5542 26.3211 41.4991 26.3698 41.4293C26.4185 41.3595 26.4471 41.2777 26.4524 41.1927C26.4548 41.1302 26.4402 41.0682 26.4101 41.0134C26.38 40.9586 26.3355 40.9131 26.2815 40.8816C26.2274 40.8501 26.1658 40.834 26.1033 40.8349C26.0408 40.8357 25.9797 40.8536 25.9265 40.8866C25.8559 40.9339 25.7996 40.9997 25.7637 41.0768C25.7278 41.1539 25.7136 41.2394 25.7228 41.3239Z" fill="black"/>
<path d="M23.5441 40.5332C23.3916 40.418 23.3735 40.1396 23.5303 39.9636C23.6127 39.8754 23.7225 39.8178 23.8419 39.8002C23.9613 39.7825 24.0831 39.8059 24.1875 39.8664C24.2919 39.927 24.3727 40.0211 24.4166 40.1335C24.4606 40.2459 24.4651 40.3699 24.4295 40.4852C24.3548 40.7102 24.1031 40.8318 23.9281 40.755C23.9913 40.724 24.0447 40.6761 24.0823 40.6166C24.12 40.5571 24.1404 40.4884 24.1415 40.418C24.14 40.3715 24.1267 40.3261 24.1029 40.2862C24.079 40.2463 24.0454 40.213 24.0052 40.1897C23.965 40.1663 23.9195 40.1536 23.8729 40.1526C23.8264 40.1517 23.7805 40.1626 23.7393 40.1844C23.6778 40.2189 23.6271 40.2697 23.5926 40.3313C23.5582 40.3928 23.5414 40.4627 23.5441 40.5332Z" fill="black"/>
<path d="M40.3109 40.7571C40.1413 40.8435 39.8842 40.7401 39.7925 40.5214C39.7491 40.4088 39.7452 40.2848 39.7814 40.1696C39.8177 40.0545 39.8919 39.9551 39.9919 39.8876C40.092 39.8201 40.212 39.7885 40.3323 39.7981C40.4526 39.8076 40.5662 39.8577 40.6543 39.9401C40.8229 40.1043 40.8229 40.3838 40.6778 40.5086C40.6761 40.4386 40.6554 40.3705 40.6178 40.3114C40.5802 40.2524 40.5272 40.2048 40.4645 40.1737C40.4219 40.1546 40.3753 40.1467 40.3288 40.1507C40.2824 40.1547 40.2377 40.1704 40.1991 40.1965C40.1604 40.2225 40.129 40.258 40.1079 40.2996C40.0868 40.3411 40.0766 40.3874 40.0783 40.4339C40.0836 40.504 40.1081 40.5712 40.1491 40.6282C40.1902 40.6853 40.2461 40.7299 40.3109 40.7571Z" fill="black"/>
<path d="M37.7242 39.3653C37.4448 39.4527 37.0842 39.2714 36.9637 38.9482C36.9006 38.7831 36.8952 38.6014 36.9485 38.4329C37.0017 38.2643 37.1104 38.1187 37.257 38.0198C37.4035 37.9209 37.5792 37.8744 37.7554 37.8881C37.9317 37.9017 38.0981 37.9746 38.2277 38.0949C38.4837 38.3274 38.5157 38.7349 38.329 38.9567C38.3446 38.8355 38.3256 38.7123 38.2743 38.6014C38.223 38.4904 38.1414 38.3962 38.0389 38.3295C37.9535 38.2761 37.8543 38.2487 37.7536 38.2505C37.6528 38.2523 37.5548 38.2833 37.4713 38.3398C37.3878 38.3963 37.3226 38.4758 37.2834 38.5686C37.2442 38.6615 37.2328 38.7637 37.2506 38.8629C37.2745 38.9826 37.3316 39.0932 37.4153 39.1821C37.4991 39.2709 37.6061 39.3344 37.7242 39.3653Z" fill="black"/>
<path d="M35.4673 41.3654C35.206 41.4529 34.8604 41.2833 34.7452 40.9772C34.6859 40.8198 34.6815 40.6471 34.7326 40.4869C34.7837 40.3268 34.8874 40.1885 35.0269 40.0946C35.1663 40.0007 35.3334 39.9566 35.501 39.9695C35.6686 39.9823 35.827 40.0514 35.9505 40.1654C36.1927 40.3873 36.2193 40.7724 36.0401 40.9814C36.0525 40.8682 36.033 40.7538 35.9838 40.6511C35.9346 40.5484 35.8577 40.4614 35.7617 40.4001C35.683 40.3525 35.5923 40.3284 35.5003 40.3308C35.4083 40.3331 35.3189 40.3616 35.2426 40.4131C35.1663 40.4646 35.1064 40.5368 35.0699 40.6213C35.0333 40.7057 35.0217 40.7989 35.0364 40.8897C35.0567 41.0013 35.1078 41.105 35.184 41.1891C35.2601 41.2731 35.3583 41.3342 35.4673 41.3654Z" fill="black"/>
<path d="M38.1211 41.6842C37.9025 41.7716 37.5974 41.633 37.495 41.3642C37.4371 41.2275 37.4286 41.075 37.4707 40.9327C37.5129 40.7904 37.6032 40.6672 37.7262 40.5842C37.8492 40.5012 37.9972 40.4634 38.145 40.4775C38.2927 40.4915 38.4309 40.5565 38.5361 40.6613C38.7441 40.8565 38.7579 41.1946 38.5947 41.361C38.6005 41.2682 38.5804 41.1756 38.5367 41.0935C38.493 41.0114 38.4274 40.943 38.3473 40.8959C38.2856 40.8614 38.2156 40.8447 38.145 40.8476C38.0745 40.8506 38.0061 40.873 37.9475 40.9125C37.8889 40.9519 37.8424 41.0069 37.8132 41.0712C37.784 41.1355 37.7731 41.2066 37.7819 41.2767C37.7951 41.3694 37.8338 41.4566 37.8937 41.5286C37.9536 41.6006 38.0324 41.6544 38.1211 41.6842Z" fill="black"/>
<path d="M30.8677 38.6505C30.8677 38.6505 25.0106 36.8297 26.0304 33.7364C26.873 31.1764 37.1973 31.2052 38.0165 33.7364C38.8357 36.2676 33.9237 38.5065 32.729 38.6505C31.5344 38.7945 30.8677 38.6505 30.8677 38.6505Z" fill="black"/>
<path d="M41.5168 33.0922C41.5168 33.0922 36.1557 29.8922 36.6026 25.3493C36.9162 22.1632 37.4218 18.9493 42.112 18.5749C46.8021 18.2005 50.5258 20.6592 52.9109 25.28C56.033 31.329 54.7744 36.9216 51.4965 40.2453C48.8405 42.9386 46.0842 43.2213 43.9765 41.2874C41.3674 38.8917 44.048 34.433 41.5168 33.0922Z" fill="black"/>
<path d="M49.2591 30.5343C49.2591 30.5343 45.6389 27.0474 40.921 29.9658C40.921 29.9658 40.8463 24.9044 45.0895 24.7562C49.3327 24.6079 49.2591 30.5343 49.2591 30.5343Z" fill="white"/>
<path d="M44.4202 29.443C45.3864 29.443 46.1696 28.6598 46.1696 27.6937C46.1696 26.7275 45.3864 25.9443 44.4202 25.9443C43.4541 25.9443 42.6709 26.7275 42.6709 27.6937C42.6709 28.6598 43.4541 29.443 44.4202 29.443Z" fill="black"/>
<path d="M43.1227 27.6799C43.5032 27.6799 43.8117 27.3714 43.8117 26.9908C43.8117 26.6103 43.5032 26.3018 43.1227 26.3018C42.7421 26.3018 42.4336 26.6103 42.4336 26.9908C42.4336 27.3714 42.7421 27.6799 43.1227 27.6799Z" fill="white"/>
<path d="M22.8021 33.0922C22.8021 33.0922 28.1631 29.8922 27.7162 25.3493C27.4026 22.1632 26.897 18.9493 22.2069 18.5749C17.5167 18.2005 13.793 20.6592 11.4111 25.28C8.289 31.329 9.54767 36.9216 12.8255 40.2453C15.4815 42.9386 18.2378 43.2213 20.3455 41.2874C22.9514 38.8917 20.2709 34.433 22.8021 33.0922Z" fill="black"/>
<path d="M15.0586 30.5341C15.0586 30.5341 18.6789 27.0472 23.3978 29.9656C23.3978 29.9656 23.6111 24.9075 19.3679 24.7581C15.1247 24.6088 15.0586 30.5341 15.0586 30.5341Z" fill="white"/>
<path d="M19.8987 29.443C20.8649 29.443 21.6481 28.6598 21.6481 27.6937C21.6481 26.7275 20.8649 25.9443 19.8987 25.9443C18.9326 25.9443 18.1494 26.7275 18.1494 27.6937C18.1494 28.6598 18.9326 29.443 19.8987 29.443Z" fill="black"/>
<path d="M18.6793 27.7365C19.0599 27.7365 19.3684 27.428 19.3684 27.0475C19.3684 26.6669 19.0599 26.3584 18.6793 26.3584C18.2987 26.3584 17.9902 26.6669 17.9902 27.0475C17.9902 27.428 18.2987 27.7365 18.6793 27.7365Z" fill="white"/>
<path d="M29.3447 36.083C29.7693 36.3292 30.2197 36.5281 30.6877 36.6761C31.121 36.8087 31.5721 36.8738 32.0253 36.8691C32.9765 36.8709 33.9081 36.5979 34.7079 36.083C34.5106 36.5801 34.0914 36.9726 33.6157 37.235C33.1294 37.4972 32.5862 37.636 32.0338 37.6393C31.4758 37.6478 30.9259 37.5051 30.4423 37.2265C29.9677 36.9671 29.5845 36.5678 29.3447 36.083Z" fill="white"/>
<path d="M49.7102 11.9595L48.9102 13.2789C50.1838 14.0512 52.188 15.8283 52.2072 15.8453L53.2302 14.6923C53.1448 14.6133 51.1022 12.8053 49.7102 11.9595Z" fill="black"/>
<path d="M15.059 12.326L14.5875 11.7148C14.5246 11.7639 13.0248 12.9202 11.9678 13.8172L12.467 14.406L12.9662 14.9938C13.9955 14.1202 15.5144 12.949 15.5262 12.9372L15.0558 12.326H15.059Z" fill="black"/>
</svg>
